<svg height="512pt" viewBox="0 -1 512 511" width="512pt" xmlns="http://www.w3.org/2000/svg"><path d="m236.878906 364.453125h38.242188v130.492187h-38.242188zm0 0" fill="#554e56"/><path d="m236.878906 364.453125h27.347656v130.492187h-27.347656zm0 0" fill="#433f43"/><path d="m487.578125.5h-463.15625c-13.433594 0-24.421875 10.992188-24.421875 24.425781v330.921875c0 13.433594 10.988281 24.421875 24.421875 24.421875h463.15625c13.433594 0 24.421875-10.988281 24.421875-24.421875v-330.921875c0-13.433593-10.988281-24.425781-24.421875-24.425781zm0 0" fill="#685e68"/><path d="m31.980469 355.847656v-330.921875c0-13.433593 10.988281-24.425781 24.421875-24.425781h-31.980469c-13.433594 0-24.421875 10.992188-24.421875 24.425781v330.921875c0 13.433594 10.988281 24.421875 24.421875 24.421875h31.980469c-13.433594 0-24.421875-10.988281-24.421875-24.421875zm0 0" fill="#554e56"/><path d="m31.871094 64.113281v278.152344c0 3.386719 2.746094 6.132813 6.132812 6.132813h435.992188c3.386718 0 6.132812-2.746094 6.132812-6.132813v-278.152344zm0 0" fill="#8bcaff"/><path d="m63.851562 342.265625v-278.152344h-31.980468v278.152344c0 3.386719 2.746094 6.132813 6.132812 6.132813h31.980469c-3.386719 0-6.132813-2.746094-6.132813-6.132813zm0 0" fill="#60b8ff"/><path d="m340.839844 479.460938h-169.679688c-7.011718 0-12.746094 6.515624-12.746094 14.484374v2c0 7.96875 5.738282 14.488282 12.746094 14.488282h169.679688c7.007812 0 12.746094-6.519532 12.746094-14.488282v-2c0-7.96875-5.738282-14.484374-12.746094-14.484374zm0 0" fill="#685e68"/><path d="m340.839844 489.398438h-169.679688c-3.808594 0-7.230468-1.933594-9.574218-4.96875-1.96875 2.550781-3.171876 5.878906-3.171876 9.515624v2c0 7.96875 5.738282 14.488282 12.746094 14.488282h169.679688c7.007812 0 12.746094-6.519532 12.746094-14.488282v-2c0-3.636718-1.203126-6.964843-3.171876-9.515624-2.34375 3.035156-5.765624 4.96875-9.574218 4.96875zm0 0" fill="#554e56"/><g fill="#22a7ff"><path d="m78.382812 103.390625-2.820312 1.75c-.875.585937-1.75.777344-2.433594.777344-2.820312 0-4.765625-3.015625-4.765625-6.03125 0-2.042969.875-3.988281 2.820313-5.15625l12.84375-7.785157c.777344-.484374 1.75-.679687 2.820312-.679687 3.113282 0 6.714844 1.847656 6.714844 4.765625v61.878906c0 3.113282-3.796875 4.671875-7.589844 4.671875-3.792968 0-7.589844-1.558593-7.589844-4.671875zm0 0"/><path d="m102.320312 135.207031v-25.785156c0-16.734375 10.410157-22.960937 23.835938-22.960937 13.429688 0 23.9375 6.226562 23.9375 22.960937v25.785156c0 16.734375-10.507812 22.960938-23.9375 22.960938-13.425781 0-23.835938-6.226563-23.835938-22.960938zm32.59375-25.785156c0-6.710937-3.308593-9.726563-8.757812-9.726563-5.445312 0-8.660156 3.015626-8.660156 9.726563v25.785156c0 6.710938 3.214844 9.730469 8.660156 9.730469 5.449219 0 8.757812-3.015625 8.757812-9.730469zm0 0"/><path d="m163.714844 103.390625-2.820313 1.75c-.875.585937-1.75.777344-2.433593.777344-2.820313 0-4.765626-3.015625-4.765626-6.03125 0-2.042969.875-3.988281 2.820313-5.15625l12.84375-7.785157c.777344-.484374 1.75-.679687 2.820313-.679687 3.113281 0 6.714843 1.847656 6.714843 4.765625v61.878906c0 3.113282-3.796875 4.671875-7.589843 4.671875-3.792969 0-7.589844-1.558593-7.589844-4.671875zm0 0"/><path d="m187.652344 135.207031v-25.785156c0-16.734375 10.410156-22.960937 23.835937-22.960937 13.429688 0 23.9375 6.226562 23.9375 22.960937v25.785156c0 16.734375-10.507812 22.960938-23.9375 22.960938-13.425781 0-23.835937-6.226563-23.835937-22.960938zm32.59375-25.785156c0-6.710937-3.308594-9.726563-8.757813-9.726563-5.445312 0-8.65625 3.015626-8.65625 9.726563v25.785156c0 6.710938 3.210938 9.730469 8.65625 9.730469 5.449219 0 8.757813-3.015625 8.757813-9.730469zm0 0"/><path d="m249.050781 103.390625-2.824219 1.75c-.875.585937-1.75.777344-2.429687.777344-2.824219 0-4.769531-3.015625-4.769531-6.03125 0-2.042969.875-3.988281 2.820312-5.15625l12.84375-7.785157c.777344-.484374 1.75-.679687 2.824219-.679687 3.113281 0 6.710937 1.847656 6.710937 4.765625v61.878906c0 3.113282-3.792968 4.671875-7.589843 4.671875-3.792969 0-7.585938-1.558593-7.585938-4.671875zm0 0"/><path d="m272.984375 135.207031v-25.785156c0-16.734375 10.410156-22.960937 23.835937-22.960937 13.429688 0 23.9375 6.226562 23.9375 22.960937v25.785156c0 16.734375-10.507812 22.960938-23.9375 22.960938-13.425781 0-23.835937-6.226563-23.835937-22.960938zm32.59375-25.785156c0-6.710937-3.308594-9.726563-8.757813-9.726563-5.445312 0-8.65625 3.015626-8.65625 9.726563v25.785156c0 6.710938 3.210938 9.730469 8.65625 9.730469 5.449219 0 8.757813-3.015625 8.757813-9.730469zm0 0"/><path d="m334.382812 103.390625-2.824218 1.75c-.875.585937-1.75.777344-2.429688.777344-2.824218 0-4.769531-3.015625-4.769531-6.03125 0-2.042969.875-3.988281 2.820313-5.15625l12.84375-7.785157c.777343-.484374 1.75-.679687 2.824218-.679687 3.113282 0 6.710938 1.847656 6.710938 4.765625v61.878906c0 3.113282-3.792969 4.671875-7.589844 4.671875-3.792969 0-7.585938-1.558593-7.585938-4.671875zm0 0"/><path d="m358.316406 135.207031v-25.785156c0-16.734375 10.410156-22.960937 23.835938-22.960937 13.429687 0 23.9375 6.226562 23.9375 22.960937v25.785156c0 16.734375-10.507813 22.960938-23.9375 22.960938-13.425782 0-23.835938-6.226563-23.835938-22.960938zm32.59375-25.785156c0-6.710937-3.308594-9.726563-8.757812-9.726563-5.445313 0-8.65625 3.015626-8.65625 9.726563v25.785156c0 6.710938 3.210937 9.730469 8.65625 9.730469 5.449218 0 8.757812-3.015625 8.757812-9.730469zm0 0"/><path d="m419.714844 103.390625-2.824219 1.75c-.875.585937-1.75.777344-2.429687.777344-2.824219 0-4.769532-3.015625-4.769532-6.03125 0-2.042969.875-3.988281 2.820313-5.15625l12.84375-7.785157c.777343-.484374 1.75-.679687 2.824219-.679687 3.109374 0 6.710937 1.847656 6.710937 4.765625v61.878906c0 3.113282-3.792969 4.671875-7.589844 4.671875-3.792969 0-7.585937-1.558593-7.585937-4.671875zm0 0"/><path d="m78.382812 186.804688-2.820312 1.75c-.875.582031-1.75.777343-2.433594.777343-2.820312 0-4.765625-3.015625-4.765625-6.03125 0-2.042969.875-3.988281 2.820313-5.15625l12.84375-7.785156c.777344-.488281 1.75-.679687 2.820312-.679687 3.113282 0 6.714844 1.847656 6.714844 4.765624v61.878907c0 3.113281-3.796875 4.667969-7.589844 4.667969-3.792968 0-7.589844-1.554688-7.589844-4.667969zm0 0"/><path d="m102.320312 218.617188v-25.78125c0-16.734376 10.410157-22.960938 23.835938-22.960938 13.429688 0 23.9375 6.226562 23.9375 22.960938v25.78125c0 16.734374-10.507812 22.960937-23.9375 22.960937-13.425781 0-23.835938-6.226563-23.835938-22.960937zm32.59375-25.78125c0-6.714844-3.308593-9.730469-8.757812-9.730469-5.445312 0-8.660156 3.015625-8.660156 9.730469v25.78125c0 6.714843 3.214844 9.730468 8.660156 9.730468 5.449219 0 8.757812-3.015625 8.757812-9.730468zm0 0"/><path d="m163.714844 186.804688-2.820313 1.75c-.875.582031-1.75.777343-2.433593.777343-2.820313 0-4.765626-3.015625-4.765626-6.03125 0-2.042969.875-3.988281 2.820313-5.15625l12.84375-7.785156c.777344-.488281 1.75-.679687 2.820313-.679687 3.113281 0 6.714843 1.847656 6.714843 4.765624v61.878907c0 3.113281-3.796875 4.667969-7.589843 4.667969-3.792969 0-7.589844-1.554688-7.589844-4.667969zm0 0"/><path d="m187.652344 218.617188v-25.78125c0-16.734376 10.410156-22.960938 23.835937-22.960938 13.429688 0 23.9375 6.226562 23.9375 22.960938v25.78125c0 16.734374-10.507812 22.960937-23.9375 22.960937-13.425781 0-23.835937-6.226563-23.835937-22.960937zm32.59375-25.78125c0-6.714844-3.308594-9.730469-8.757813-9.730469-5.445312 0-8.65625 3.015625-8.65625 9.730469v25.78125c0 6.714843 3.210938 9.730468 8.65625 9.730468 5.449219 0 8.757813-3.015625 8.757813-9.730468zm0 0"/><path d="m249.050781 186.804688-2.824219 1.75c-.875.582031-1.75.777343-2.429687.777343-2.824219 0-4.769531-3.015625-4.769531-6.03125 0-2.042969.875-3.988281 2.820312-5.15625l12.84375-7.785156c.777344-.488281 1.75-.679687 2.824219-.679687 3.113281 0 6.710937 1.847656 6.710937 4.765624v61.878907c0 3.113281-3.792968 4.667969-7.589843 4.667969-3.792969 0-7.585938-1.554688-7.585938-4.667969zm0 0"/><path d="m272.984375 218.617188v-25.78125c0-16.734376 10.410156-22.960938 23.835937-22.960938 13.429688 0 23.9375 6.226562 23.9375 22.960938v25.78125c0 16.734374-10.507812 22.960937-23.9375 22.960937-13.425781 0-23.835937-6.226563-23.835937-22.960937zm32.59375-25.78125c0-6.714844-3.308594-9.730469-8.757813-9.730469-5.445312 0-8.65625 3.015625-8.65625 9.730469v25.78125c0 6.714843 3.210938 9.730468 8.65625 9.730468 5.449219 0 8.757813-3.015625 8.757813-9.730468zm0 0"/><path d="m334.382812 186.804688-2.824218 1.75c-.875.582031-1.75.777343-2.429688.777343-2.824218 0-4.769531-3.015625-4.769531-6.03125 0-2.042969.875-3.988281 2.820313-5.15625l12.84375-7.785156c.777343-.488281 1.75-.679687 2.824218-.679687 3.113282 0 6.710938 1.847656 6.710938 4.765624v61.878907c0 3.113281-3.792969 4.667969-7.589844 4.667969-3.792969 0-7.585938-1.554688-7.585938-4.667969zm0 0"/><path d="m358.316406 218.617188v-25.78125c0-16.734376 10.410156-22.960938 23.835938-22.960938 13.429687 0 23.9375 6.226562 23.9375 22.960938v25.78125c0 16.734374-10.507813 22.960937-23.9375 22.960937-13.425782 0-23.835938-6.226563-23.835938-22.960937zm32.59375-25.78125c0-6.714844-3.308594-9.730469-8.757812-9.730469-5.445313 0-8.65625 3.015625-8.65625 9.730469v25.78125c0 6.714843 3.210937 9.730468 8.65625 9.730468 5.449218 0 8.757812-3.015625 8.757812-9.730468zm0 0"/><path d="m419.714844 186.804688-2.824219 1.75c-.875.582031-1.75.777343-2.429687.777343-2.824219 0-4.769532-3.015625-4.769532-6.03125 0-2.042969.875-3.988281 2.820313-5.15625l12.84375-7.785156c.777343-.488281 1.75-.679687 2.824219-.679687 3.109374 0 6.710937 1.847656 6.710937 4.765624v61.878907c0 3.113281-3.792969 4.667969-7.589844 4.667969-3.792969 0-7.585937-1.554688-7.585937-4.667969zm0 0"/><path d="m78.382812 270.214844-2.820312 1.75c-.875.585937-1.75.777344-2.433594.777344-2.820312 0-4.765625-3.015626-4.765625-6.03125 0-2.042969.875-3.988282 2.820313-5.15625l12.84375-7.785157c.777344-.484375 1.75-.679687 2.820312-.679687 3.113282 0 6.714844 1.847656 6.714844 4.765625v61.878906c0 3.113281-3.796875 4.671875-7.589844 4.671875-3.792968 0-7.589844-1.558594-7.589844-4.671875zm0 0"/><path d="m102.320312 302.03125v-25.785156c0-16.734375 10.410157-22.960938 23.835938-22.960938 13.429688 0 23.9375 6.226563 23.9375 22.960938v25.785156c0 16.734375-10.507812 22.960938-23.9375 22.960938-13.425781 0-23.835938-6.226563-23.835938-22.960938zm32.59375-25.785156c0-6.710938-3.308593-9.726563-8.757812-9.726563-5.445312 0-8.660156 3.015625-8.660156 9.726563v25.785156c0 6.710938 3.214844 9.726562 8.660156 9.726562 5.449219 0 8.757812-3.015624 8.757812-9.726562zm0 0"/><path d="m163.714844 270.214844-2.820313 1.75c-.875.585937-1.75.777344-2.433593.777344-2.820313 0-4.765626-3.015626-4.765626-6.03125 0-2.042969.875-3.988282 2.820313-5.15625l12.84375-7.785157c.777344-.484375 1.75-.679687 2.820313-.679687 3.113281 0 6.714843 1.847656 6.714843 4.765625v61.878906c0 3.113281-3.796875 4.671875-7.589843 4.671875-3.792969 0-7.589844-1.558594-7.589844-4.671875zm0 0"/><path d="m187.652344 302.03125v-25.785156c0-16.734375 10.410156-22.960938 23.835937-22.960938 13.429688 0 23.9375 6.226563 23.9375 22.960938v25.785156c0 16.734375-10.507812 22.960938-23.9375 22.960938-13.425781 0-23.835937-6.226563-23.835937-22.960938zm32.59375-25.785156c0-6.710938-3.308594-9.726563-8.757813-9.726563-5.445312 0-8.65625 3.015625-8.65625 9.726563v25.785156c0 6.710938 3.210938 9.726562 8.65625 9.726562 5.449219 0 8.757813-3.015624 8.757813-9.726562zm0 0"/><path d="m249.050781 270.214844-2.824219 1.75c-.875.585937-1.75.777344-2.429687.777344-2.824219 0-4.769531-3.015626-4.769531-6.03125 0-2.042969.875-3.988282 2.820312-5.15625l12.84375-7.785157c.777344-.484375 1.75-.679687 2.824219-.679687 3.113281 0 6.710937 1.847656 6.710937 4.765625v61.878906c0 3.113281-3.792968 4.671875-7.589843 4.671875-3.792969 0-7.585938-1.558594-7.585938-4.671875zm0 0"/><path d="m272.984375 302.03125v-25.785156c0-16.734375 10.410156-22.960938 23.835937-22.960938 13.429688 0 23.9375 6.226563 23.9375 22.960938v25.785156c0 16.734375-10.507812 22.960938-23.9375 22.960938-13.425781 0-23.835937-6.226563-23.835937-22.960938zm32.59375-25.785156c0-6.710938-3.308594-9.726563-8.757813-9.726563-5.445312 0-8.65625 3.015625-8.65625 9.726563v25.785156c0 6.710938 3.210938 9.726562 8.65625 9.726562 5.449219 0 8.757813-3.015624 8.757813-9.726562zm0 0"/><path d="m334.382812 270.214844-2.824218 1.75c-.875.585937-1.75.777344-2.429688.777344-2.824218 0-4.769531-3.015626-4.769531-6.03125 0-2.042969.875-3.988282 2.820313-5.15625l12.84375-7.785157c.777343-.484375 1.75-.679687 2.824218-.679687 3.113282 0 6.710938 1.847656 6.710938 4.765625v61.878906c0 3.113281-3.792969 4.671875-7.589844 4.671875-3.792969 0-7.585938-1.558594-7.585938-4.671875zm0 0"/><path d="m358.316406 302.03125v-25.785156c0-16.734375 10.410156-22.960938 23.835938-22.960938 13.429687 0 23.9375 6.226563 23.9375 22.960938v25.785156c0 16.734375-10.507813 22.960938-23.9375 22.960938-13.425782 0-23.835938-6.226563-23.835938-22.960938zm32.59375-25.785156c0-6.710938-3.308594-9.726563-8.757812-9.726563-5.445313 0-8.65625 3.015625-8.65625 9.726563v25.785156c0 6.710938 3.210937 9.726562 8.65625 9.726562 5.449218 0 8.757812-3.015624 8.757812-9.726562zm0 0"/><path d="m419.714844 270.214844-2.824219 1.75c-.875.585937-1.75.777344-2.429687.777344-2.824219 0-4.769532-3.015626-4.769532-6.03125 0-2.042969.875-3.988282 2.820313-5.15625l12.84375-7.785157c.777343-.484375 1.75-.679687 2.824219-.679687 3.109374 0 6.710937 1.847656 6.710937 4.765625v61.878906c0 3.113281-3.792969 4.671875-7.589844 4.671875-3.792969 0-7.585937-1.558594-7.585937-4.671875zm0 0"/></g><path d="m473.996094 32.371094h-391.019532v32.765625h397.152344v-26.632813c0-3.386718-2.746094-6.132812-6.132812-6.132812zm0 0" fill="#4f66d1"/><path d="m85.027344 32.371094h-47.023438c-3.386718 0-6.132812 2.746094-6.132812 6.132812v26.632813h53.15625zm0 0" fill="#ff646f"/><path d="m69.984375 32.371094h-31.980469c-3.386718 0-6.132812 2.746094-6.132812 6.132812v26.632813h31.980468v-26.632813c0-3.386718 2.746094-6.132812 6.132813-6.132812zm0 0" fill="#ff4755"/></svg>