<svg height="512pt" viewBox="-81 0 512 512" width="512pt" xmlns="http://www.w3.org/2000/svg"><path d="m318.523438 0h-286.664063c-17.523437 0-31.859375 14.335938-31.859375 31.859375v448.28125c0 17.523437 14.335938 31.859375 31.859375 31.859375h286.664063c17.523437 0 31.859374-14.335938 31.859374-31.859375v-448.28125c0-17.523437-14.335937-31.859375-31.859374-31.859375zm0 0" fill="#4f66d1"/><path d="m31.9375 480.140625v-448.28125c0-17.523437 14.335938-31.859375 31.859375-31.859375h-31.9375c-17.523437 0-31.859375 14.335938-31.859375 31.859375v448.28125c0 17.523437 14.335938 31.859375 31.859375 31.859375h31.941406c-17.527343 0-31.863281-14.335938-31.863281-31.859375zm0 0" fill="#314dca"/><path d="m302.75 32h-255.117188c-8.632812 0-15.632812 7-15.632812 15.632812v109.535157c0 8.632812 7 15.632812 15.632812 15.632812h255.117188c8.632812 0 15.632812-7 15.632812-15.632812v-109.535157c0-8.632812-7-15.632812-15.632812-15.632812zm0 0" fill="#ffe55a"/><path d="m62.90625 157.167969v-109.535157c0-8.632812 7-15.632812 15.632812-15.632812h-30.90625c-8.632812 0-15.632812 7-15.632812 15.632812v109.535157c0 8.632812 7 15.632812 15.632812 15.632812h30.90625c-8.632812 0-15.632812-7-15.632812-15.632812zm0 0" fill="#fbc700"/><g fill="#6c7fd9"><path d="m92.878906 212.058594h-11.375c-4.269531 0-7.726562-3.460938-7.726562-7.726563 0-4.269531 3.457031-7.726562 7.726562-7.726562h11.375c4.269532 0 7.726563 3.457031 7.726563 7.726562 0 4.265625-3.457031 7.726563-7.726563 7.726563zm0 0"/><path d="m210.214844 212.058594h-11.378906c-4.265626 0-7.726563-3.460938-7.726563-7.726563 0-4.269531 3.457031-7.726562 7.726563-7.726562h11.378906c4.265625 0 7.726562 3.457031 7.726562 7.726562 0 4.265625-3.460937 7.726563-7.726562 7.726563zm0 0"/><path d="m268.878906 212.058594h-11.375c-4.269531 0-7.726562-3.460938-7.726562-7.726563 0-4.269531 3.457031-7.726562 7.726562-7.726562h11.375c4.269532 0 7.726563 3.457031 7.726563 7.726562 0 4.265625-3.457031 7.726563-7.726563 7.726563zm0 0"/><path d="m151.546875 212.058594h-11.378906c-4.265625 0-7.726563-3.460938-7.726563-7.726563 0-4.269531 3.460938-7.726562 7.726563-7.726562h11.378906c4.265625 0 7.726563 3.457031 7.726563 7.726562 0 4.265625-3.460938 7.726563-7.726563 7.726563zm0 0"/></g><path d="m95.226562 263.679688c0 11.375-9.222656 20.59375-20.59375 20.59375-11.375 0-20.59375-9.21875-20.59375-20.59375s9.21875-20.59375 20.59375-20.59375c11.371094 0 20.59375 9.21875 20.59375 20.59375zm0 0" fill="#ffe55a"/><path d="m84.945312 263.679688c0-5.210938 1.949219-9.953126 5.140626-13.582032-3.773438-4.289062-9.289063-7.011718-15.453126-7.011718-11.375 0-20.59375 9.21875-20.59375 20.59375s9.21875 20.59375 20.59375 20.59375c6.164063 0 11.679688-2.722657 15.453126-7.011719-3.191407-3.628907-5.140626-8.371094-5.140626-13.582031zm0 0" fill="#fbc700"/><path d="m292.710938 367.351562h-27.019532c-7.042968 0-12.800781 5.757813-12.800781 12.796876v77.722656c0 7.039062 5.757813 12.800781 12.800781 12.800781h27.019532c7.042968 0 12.800781-5.761719 12.800781-12.800781v-77.722656c0-7.039063-5.757813-12.796876-12.800781-12.796876zm0 0" fill="#60b8ff"/><path d="m283.796875 457.871094v-77.722656c0-6.375 4.734375-11.6875 10.855469-12.632813-.632813-.097656-1.28125-.164063-1.941406-.164063h-27.023438c-7.039062 0-12.796875 5.757813-12.796875 12.796876v77.722656c0 7.039062 5.757813 12.800781 12.796875 12.800781h27.023438c.660156 0 1.308593-.066406 1.941406-.164063-6.121094-.945312-10.855469-6.257812-10.855469-12.636718zm0 0" fill="#22a7ff"/><path d="m295.683594 305.21875c-15.464844 0-17.757813 0-32.964844 0-5.40625 0-9.828125 4.421875-9.828125 9.828125v21.53125c0 5.40625 4.421875 9.828125 9.828125 9.828125h32.964844c5.40625 0 9.828125-4.421875 9.828125-9.828125v-21.53125c0-5.40625-4.421875-9.828125-9.828125-9.828125zm0 0" fill="#60b8ff"/><path d="m283.796875 336.578125v-21.53125c0-5.40625 4.421875-9.828125 9.828125-9.828125-13.640625 0-16.402344 0-30.90625 0-5.40625 0-9.828125 4.421875-9.828125 9.828125v21.53125c0 5.40625 4.421875 9.828125 9.828125 9.828125h30.90625c-5.40625 0-9.828125-4.421875-9.828125-9.828125zm0 0" fill="#22a7ff"/><path d="m295.683594 243.085938c-15.464844 0-17.757813 0-32.964844 0-5.40625 0-9.828125 4.421874-9.828125 9.828124v21.53125c0 5.40625 4.421875 9.828126 9.828125 9.828126h32.964844c5.40625 0 9.828125-4.421876 9.828125-9.828126v-21.53125c0-5.40625-4.421875-9.828124-9.828125-9.828124zm0 0" fill="#60b8ff"/><path d="m283.796875 274.445312v-21.53125c0-5.40625 4.421875-9.828124 9.828125-9.828124-13.640625 0-16.402344 0-30.90625 0-5.40625 0-9.828125 4.421874-9.828125 9.828124v21.53125c0 5.40625 4.421875 9.828126 9.828125 9.828126h30.90625c-5.40625 0-9.828125-4.421876-9.828125-9.828126zm0 0" fill="#22a7ff"/><path d="m159.835938 263.679688c0 11.375-9.222657 20.59375-20.59375 20.59375-11.375 0-20.59375-9.21875-20.59375-20.59375s9.21875-20.59375 20.59375-20.59375c11.371093 0 20.59375 9.21875 20.59375 20.59375zm0 0" fill="#ffe55a"/><path d="m149.554688 263.679688c0-5.210938 1.949218-9.953126 5.140624-13.582032-3.773437-4.289062-9.289062-7.011718-15.453124-7.011718-11.375 0-20.59375 9.21875-20.59375 20.59375s9.21875 20.59375 20.59375 20.59375c6.164062 0 11.679687-2.722657 15.453124-7.011719-3.191406-3.628907-5.140624-8.371094-5.140624-13.582031zm0 0" fill="#fbc700"/><path d="m224.445312 263.679688c0 11.375-9.21875 20.59375-20.59375 20.59375s-20.59375-9.21875-20.59375-20.59375 9.21875-20.59375 20.59375-20.59375 20.59375 9.21875 20.59375 20.59375zm0 0" fill="#ffe55a"/><path d="m214.164062 263.679688c0-5.210938 1.949219-9.953126 5.140626-13.582032-3.773438-4.289062-9.289063-7.011718-15.453126-7.011718-11.375 0-20.59375 9.21875-20.59375 20.59375s9.21875 20.59375 20.59375 20.59375c6.164063 0 11.679688-2.722657 15.453126-7.011719-3.191407-3.628907-5.140626-8.371094-5.140626-13.582031zm0 0" fill="#fbc700"/><path d="m95.226562 325.8125c0 11.375-9.222656 20.59375-20.59375 20.59375-11.375 0-20.59375-9.21875-20.59375-20.59375s9.21875-20.59375 20.59375-20.59375c11.371094 0 20.59375 9.21875 20.59375 20.59375zm0 0" fill="#ffe55a"/><path d="m84.945312 325.8125c0-5.210938 1.949219-9.957031 5.140626-13.582031-3.773438-4.292969-9.289063-7.011719-15.453126-7.011719-11.375 0-20.59375 9.21875-20.59375 20.59375 0 11.371094 9.21875 20.59375 20.59375 20.59375 6.164063 0 11.679688-2.722656 15.453126-7.015625-3.191407-3.625-5.140626-8.367187-5.140626-13.578125zm0 0" fill="#fbc700"/><path d="m159.835938 325.8125c0 11.375-9.222657 20.59375-20.59375 20.59375-11.375 0-20.59375-9.21875-20.59375-20.59375s9.21875-20.59375 20.59375-20.59375c11.371093 0 20.59375 9.21875 20.59375 20.59375zm0 0" fill="#ffe55a"/><path d="m149.554688 325.8125c0-5.210938 1.949218-9.957031 5.140624-13.582031-3.773437-4.292969-9.289062-7.011719-15.453124-7.011719-11.375 0-20.59375 9.21875-20.59375 20.59375 0 11.371094 9.21875 20.59375 20.59375 20.59375 6.164062 0 11.679687-2.722656 15.453124-7.015625-3.191406-3.625-5.140624-8.367187-5.140624-13.578125zm0 0" fill="#fbc700"/><path d="m224.445312 325.8125c0 11.375-9.21875 20.59375-20.59375 20.59375s-20.59375-9.21875-20.59375-20.59375 9.21875-20.59375 20.59375-20.59375 20.59375 9.21875 20.59375 20.59375zm0 0" fill="#ffe55a"/><path d="m214.164062 325.8125c0-5.210938 1.949219-9.957031 5.140626-13.582031-3.773438-4.292969-9.289063-7.011719-15.453126-7.011719-11.375 0-20.59375 9.21875-20.59375 20.59375 0 11.371094 9.21875 20.59375 20.59375 20.59375 6.164063 0 11.679688-2.722656 15.453126-7.015625-3.191407-3.625-5.140626-8.367187-5.140626-13.578125zm0 0" fill="#fbc700"/><path d="m95.226562 387.945312c0 11.375-9.222656 20.59375-20.59375 20.59375-11.375 0-20.59375-9.21875-20.59375-20.59375s9.21875-20.59375 20.59375-20.59375c11.371094 0 20.59375 9.21875 20.59375 20.59375zm0 0" fill="#ffe55a"/><path d="m84.945312 387.945312c0-5.210937 1.949219-9.957031 5.140626-13.582031-3.773438-4.292969-9.289063-7.011719-15.453126-7.011719-11.375 0-20.59375 9.21875-20.59375 20.59375 0 11.371094 9.21875 20.59375 20.59375 20.59375 6.164063 0 11.679688-2.722656 15.453126-7.015624-3.191407-3.625-5.140626-8.367188-5.140626-13.578126zm0 0" fill="#fbc700"/><path d="m159.835938 387.945312c0 11.375-9.222657 20.59375-20.59375 20.59375-11.375 0-20.59375-9.21875-20.59375-20.59375s9.21875-20.59375 20.59375-20.59375c11.371093 0 20.59375 9.21875 20.59375 20.59375zm0 0" fill="#ffe55a"/><path d="m149.554688 387.945312c0-5.210937 1.949218-9.957031 5.140624-13.582031-3.773437-4.292969-9.289062-7.011719-15.453124-7.011719-11.375 0-20.59375 9.21875-20.59375 20.59375 0 11.371094 9.21875 20.59375 20.59375 20.59375 6.164062 0 11.679687-2.722656 15.453124-7.015624-3.191406-3.625-5.140624-8.367188-5.140624-13.578126zm0 0" fill="#fbc700"/><path d="m224.445312 387.945312c0 11.375-9.21875 20.59375-20.59375 20.59375s-20.59375-9.21875-20.59375-20.59375 9.21875-20.59375 20.59375-20.59375 20.59375 9.21875 20.59375 20.59375zm0 0" fill="#ffe55a"/><path d="m214.164062 387.945312c0-5.210937 1.949219-9.957031 5.140626-13.582031-3.773438-4.292969-9.289063-7.011719-15.453126-7.011719-11.375 0-20.59375 9.21875-20.59375 20.59375 0 11.371094 9.21875 20.59375 20.59375 20.59375 6.164063 0 11.679688-2.722656 15.453126-7.015624-3.191407-3.625-5.140626-8.367188-5.140626-13.578126zm0 0" fill="#fbc700"/><path d="m95.226562 450.078125c0 11.371094-9.222656 20.59375-20.59375 20.59375-11.375 0-20.59375-9.222656-20.59375-20.59375 0-11.375 9.21875-20.59375 20.59375-20.59375 11.371094 0 20.59375 9.21875 20.59375 20.59375zm0 0" fill="#ffe55a"/><path d="m84.945312 450.078125c0-5.210937 1.949219-9.957031 5.140626-13.582031-3.773438-4.292969-9.289063-7.015625-15.453126-7.015625-11.375 0-20.59375 9.222656-20.59375 20.59375 0 11.375 9.21875 20.597656 20.59375 20.597656 6.164063 0 11.679688-2.722656 15.453126-7.015625-3.191407-3.625-5.140626-8.367188-5.140626-13.578125zm0 0" fill="#fbc700"/><path d="m159.835938 450.078125c0 11.371094-9.222657 20.59375-20.59375 20.59375-11.375 0-20.59375-9.222656-20.59375-20.59375 0-11.375 9.21875-20.59375 20.59375-20.59375 11.371093 0 20.59375 9.21875 20.59375 20.59375zm0 0" fill="#ffe55a"/><path d="m149.554688 450.078125c0-5.210937 1.949218-9.957031 5.140624-13.582031-3.773437-4.292969-9.289062-7.015625-15.453124-7.015625-11.375 0-20.59375 9.222656-20.59375 20.59375 0 11.375 9.21875 20.597656 20.59375 20.597656 6.164062 0 11.679687-2.722656 15.453124-7.015625-3.191406-3.625-5.140624-8.367188-5.140624-13.578125zm0 0" fill="#fbc700"/><path d="m224.445312 450.078125c0 11.371094-9.21875 20.59375-20.59375 20.59375s-20.59375-9.222656-20.59375-20.59375c0-11.375 9.21875-20.59375 20.59375-20.59375s20.59375 9.21875 20.59375 20.59375zm0 0" fill="#ffe55a"/><path d="m214.164062 450.078125c0-5.210937 1.949219-9.957031 5.140626-13.582031-3.773438-4.292969-9.289063-7.015625-15.453126-7.015625-11.375 0-20.59375 9.222656-20.59375 20.59375 0 11.375 9.21875 20.597656 20.59375 20.597656 6.164063 0 11.679688-2.722656 15.453126-7.015625-3.191407-3.625-5.140626-8.367188-5.140626-13.578125zm0 0" fill="#fbc700"/></svg>